<svg version="1.1" viewBox="0.0 0.0 960.0 540.0" fill="none" stroke="none" stroke-linecap="square" stroke-miterlimit="10" xmlns:xlink="http://www.w3.org/1999/xlink" xmlns="http://www.w3.org/2000/svg"><clipPath id="p.0"><path d="m0 0l960.0 0l0 540.0l-960.0 0l0 -540.0z" clip-rule="nonzero"/></clipPath><g clip-path="url(#p.0)"><path fill="#ffffff" d="m0 0l960.0 0l0 540.0l-960.0 0z" fill-rule="evenodd"/><path fill="#000000" fill-opacity="0.0" d="m415.25986 211.82677l129.48032 0l0 116.34645l-129.48032 0z" fill-rule="evenodd"/><path fill="#000000" d="m452.50986 298.92365q-4.96875 0 -9.515625 -1.953125q-4.546875 -1.96875 -8.0625 -5.640625q-3.484375 -3.671875 -5.5625 -8.953125q-2.0625 -5.296875 -2.0625 -11.9375q0 -6.640625 2.03125 -12.046875q2.03125 -5.421875 5.625 -9.328125q3.5625 -3.859375 8.40625 -5.96875q4.84375 -2.109375 10.34375 -2.109375q4.109375 0 7.421875 1.015625q3.328125 1.015625 6.328125 2.84375l1.609375 -2.65625l3.125 0l0.34375 19.765625l-3.203125 0q-0.625 -2.890625 -1.875 -6.265625q-1.25 -3.375 -2.921875 -5.71875q-1.875 -2.65625 -4.453125 -4.15625q-2.578125 -1.515625 -5.90625 -1.515625q-3.78125 0 -7.046875 1.6875q-3.265625 1.671875 -5.640625 4.953125q-2.265625 3.171875 -3.5625 8.0625q-1.28125 4.875 -1.28125 10.890625q0 5.3125 1.34375 9.75q1.34375 4.421875 3.84375 7.78125q2.5 3.328125 5.921875 5.203125q3.421875 1.875 7.640625 1.875q3.15625 0 5.8125 -1.0q2.65625 -1.0 4.609375 -2.640625q1.953125 -1.71875 3.4375 -3.90625q1.484375 -2.1875 2.421875 -4.765625l2.9375 1.40625q-3.359375 8.25 -8.90625 11.796875q-5.546875 3.53125 -13.203125 3.53125zm70.53903 -18.609375l-1.828125 17.3125l-44.53122 0l0 -1.375l34.875 -50.96875l-12.765625 0q-2.234375 0 -3.734375 0.078125q-1.5 0.078125 -2.75 0.3125q-2.578125 0.5 -5.8125 4.25q-3.21875 3.75 -4.859375 7.9375l-2.734375 0l1.6875 -15.671875l41.515594 0l0 1.375l-34.87497 50.96875l13.15625 0q3.328125 0 7.078125 -0.46875q3.75 -0.46875 4.8749695 -1.59375q2.546875 -2.421875 4.734375 -5.9375q2.1875 -3.515625 3.234375 -6.21875l2.734375 0z" fill-rule="nonzero"/></g></svg>